<svg width="8" height="8" viewBox="0 0 8 8" fill="none" xmlns="http://www.w3.org/2000/svg">
<path d="M8.00008 0.631534V6.10483C8.00008 6.27232 7.93354 6.43295 7.8151 6.55139C7.69667 6.66983 7.53604 6.73636 7.36854 6.73636C7.20105 6.73636 7.04042 6.66983 6.92198 6.55139C6.80354 6.43295 6.73701 6.27232 6.73701 6.10483V2.15774L1.07899 7.81471C0.960348 7.93335 0.799437 8 0.631653 8C0.463869 8 0.302957 7.93335 0.184316 7.81471C0.0656754 7.69607 -0.000976562 7.53515 -0.000976562 7.36737C-0.000976563 7.19959 0.0656754 7.03867 0.184316 6.92003L5.84234 1.26307H1.89525C1.72775 1.26307 1.56712 1.19653 1.44869 1.0781C1.33025 0.95966 1.26371 0.799027 1.26371 0.631534C1.26371 0.464041 1.33025 0.303408 1.44869 0.184972C1.56712 0.0665363 1.72775 0 1.89525 0H7.36854C7.53604 0 7.69667 0.0665363 7.8151 0.184972C7.93354 0.303408 8.00008 0.464041 8.00008 0.631534Z" fill="#FBF5FF"/>
</svg>
