<svg width="33" height="32" viewBox="0 0 33 32" fill="none" xmlns="http://www.w3.org/2000/svg">
<path d="M29.5 15H28.4575C28.3406 13.574 27.9671 12.1808 27.355 10.8875L28.2588 10.3663C28.4885 10.2336 28.6561 10.0152 28.7248 9.75898C28.7935 9.50276 28.7576 9.22974 28.625 9C28.4924 8.77026 28.2739 8.6026 28.0177 8.53392C27.7615 8.46523 27.4885 8.50114 27.2588 8.63375L26.3525 9.1575C25.5345 7.98452 24.5155 6.96548 23.3425 6.1475L23.8662 5.24125C23.9989 5.01151 24.0348 4.73849 23.9661 4.48227C23.8974 4.22605 23.7297 4.00761 23.5 3.875C23.2703 3.74239 22.9972 3.70648 22.741 3.77517C22.4848 3.84385 22.2664 4.01151 22.1338 4.24125L21.6125 5.145C20.3192 4.53292 18.926 4.15943 17.5 4.0425V3C17.5 2.73478 17.3946 2.48043 17.2071 2.29289C17.0196 2.10536 16.7652 2 16.5 2C16.2348 2 15.9804 2.10536 15.7929 2.29289C15.6054 2.48043 15.5 2.73478 15.5 3V4.0425C14.074 4.15943 12.6808 4.53292 11.3875 5.145L10.8663 4.24125C10.7336 4.01151 10.5152 3.84385 10.259 3.77517C10.0028 3.70648 9.72974 3.74239 9.5 3.875C9.27026 4.00761 9.1026 4.22605 9.03392 4.48227C8.96523 4.73849 9.00114 5.01151 9.13375 5.24125L9.6575 6.1475C8.48452 6.96548 7.46548 7.98452 6.6475 9.1575L5.74125 8.63375C5.62749 8.56809 5.50192 8.52548 5.37169 8.50835C5.24146 8.49122 5.10914 8.49991 4.98227 8.53392C4.72605 8.6026 4.50761 8.77026 4.375 9C4.24239 9.22974 4.20648 9.50276 4.27517 9.75898C4.34385 10.0152 4.51151 10.2336 4.74125 10.3663L5.645 10.8875C5.03292 12.1808 4.65943 13.574 4.5425 15H3.5C3.23478 15 2.98043 15.1054 2.79289 15.2929C2.60536 15.4804 2.5 15.7348 2.5 16C2.5 16.2652 2.60536 16.5196 2.79289 16.7071C2.98043 16.8946 3.23478 17 3.5 17H4.5425C4.65943 18.426 5.03292 19.8192 5.645 21.1125L4.74125 21.6338C4.5505 21.7438 4.40139 21.9137 4.31707 22.1171C4.23275 22.3205 4.21794 22.5461 4.27493 22.7588C4.33191 22.9715 4.45752 23.1594 4.63224 23.2935C4.80697 23.4275 5.02104 23.5001 5.24125 23.5C5.41683 23.5005 5.58939 23.4544 5.74125 23.3662L6.6475 22.8425C7.46548 24.0155 8.48452 25.0345 9.6575 25.8525L9.13375 26.7588C9.00114 26.9885 8.96523 27.2615 9.03392 27.5177C9.1026 27.7739 9.27026 27.9924 9.5 28.125C9.72974 28.2576 10.0028 28.2935 10.259 28.2248C10.5152 28.1561 10.7336 27.9885 10.8663 27.7588L11.3875 26.855C12.6808 27.4671 14.074 27.8406 15.5 27.9575V29C15.5 29.2652 15.6054 29.5196 15.7929 29.7071C15.9804 29.8946 16.2348 30 16.5 30C16.7652 30 17.0196 29.8946 17.2071 29.7071C17.3946 29.5196 17.5 29.2652 17.5 29V27.9575C18.926 27.8406 20.3192 27.4671 21.6125 26.855L22.1338 27.7588C22.2664 27.9885 22.4848 28.1561 22.741 28.2248C22.9972 28.2935 23.2703 28.2576 23.5 28.125C23.7297 27.9924 23.8974 27.774 23.9661 27.5177C24.0348 27.2615 23.9989 26.9885 23.8662 26.7588L23.3425 25.8525C24.5155 25.0345 25.5345 24.0155 26.3525 22.8425L27.2588 23.3662C27.3725 23.4319 27.4981 23.4746 27.6283 23.4917C27.7585 23.5089 27.8909 23.5002 28.0177 23.4662C28.1446 23.4321 28.2636 23.3735 28.3677 23.2935C28.4719 23.2135 28.5594 23.1138 28.625 23C28.7578 22.7704 28.7939 22.4975 28.7254 22.2413C28.657 21.9851 28.4896 21.7665 28.26 21.6338L27.3563 21.1125C27.9683 19.8192 28.3418 18.426 28.4587 17H29.5C29.7652 17 30.0196 16.8946 30.2071 16.7071C30.3946 16.5196 30.5 16.2652 30.5 16C30.5 15.7348 30.3946 15.4804 30.2071 15.2929C30.0196 15.1054 29.7652 15 29.5 15ZM9.5 16C9.49948 14.9406 9.7398 13.895 10.2028 12.9422C10.6658 11.9894 11.3393 11.1543 12.1725 10.5L15.345 16L12.1725 21.5C11.3393 20.8457 10.6658 20.0106 10.2028 19.0578C9.7398 18.105 9.49948 17.0594 9.5 16ZM16.5 23C15.6102 23.0009 14.7284 22.8312 13.9025 22.5L17.0775 17H23.4275C23.1848 18.6649 22.3516 20.187 21.0798 21.2885C19.808 22.39 18.1825 22.9975 16.5 23ZM17.0775 15L13.9025 9.5C14.8858 9.10719 15.9454 8.94256 17.0015 9.01852C18.0576 9.09447 19.0828 9.40903 19.9997 9.93851C20.9167 10.468 21.7016 11.1986 22.2953 12.0753C22.8891 12.952 23.2762 13.952 23.4275 15H17.0775Z" fill="#8A31EF"/>
</svg>
