<svg width="28" height="29" viewBox="0 0 28 29" fill="none" xmlns="http://www.w3.org/2000/svg">
<path d="M24.9375 14.5C24.9375 14.8481 24.7992 15.1819 24.5531 15.4281C24.3069 15.6742 23.9731 15.8125 23.625 15.8125H9.75C9.4019 15.8125 9.06806 15.6742 8.82192 15.4281C8.57578 15.1819 8.4375 14.8481 8.4375 14.5C8.4375 14.1519 8.57578 13.8181 8.82192 13.5719C9.06806 13.3258 9.4019 13.1875 9.75 13.1875H23.625C23.9731 13.1875 24.3069 13.3258 24.5531 13.5719C24.7992 13.8181 24.9375 14.1519 24.9375 14.5ZM4.375 8.8125H23.625C23.9731 8.8125 24.3069 8.67422 24.5531 8.42808C24.7992 8.18194 24.9375 7.8481 24.9375 7.5C24.9375 7.1519 24.7992 6.81806 24.5531 6.57192C24.3069 6.32578 23.9731 6.1875 23.625 6.1875H4.375C4.0269 6.1875 3.69306 6.32578 3.44692 6.57192C3.20078 6.81806 3.0625 7.1519 3.0625 7.5C3.0625 7.8481 3.20078 8.18194 3.44692 8.42808C3.69306 8.67422 4.0269 8.8125 4.375 8.8125ZM23.625 20.1875H15.125C14.7769 20.1875 14.4431 20.3258 14.1969 20.5719C13.9508 20.8181 13.8125 21.1519 13.8125 21.5C13.8125 21.8481 13.9508 22.1819 14.1969 22.4281C14.4431 22.6742 14.7769 22.8125 15.125 22.8125H23.625C23.9731 22.8125 24.3069 22.6742 24.5531 22.4281C24.7992 22.1819 24.9375 21.8481 24.9375 21.5C24.9375 21.1519 24.7992 20.8181 24.5531 20.5719C24.3069 20.3258 23.9731 20.1875 23.625 20.1875Z" fill="#FBF5FF"/>
</svg>
