<svg width="33" height="32" viewBox="0 0 33 32" fill="none" xmlns="http://www.w3.org/2000/svg">
<g clip-path="url(#clip0_80_205)">
<path d="M29.5 8V6C29.5 5.46957 29.2893 4.96086 28.9142 4.58579C28.5391 4.21071 28.0304 4 27.5 4H5.5C4.96957 4 4.46086 4.21071 4.08579 4.58579C3.71071 4.96086 3.5 5.46957 3.5 6V8C3.5 8.53043 3.71071 9.03914 4.08579 9.41421C4.46086 9.78929 4.96957 10 5.5 10V22H4.5C4.23478 22 3.98043 22.1054 3.79289 22.2929C3.60536 22.4804 3.5 22.7348 3.5 23C3.5 23.2652 3.60536 23.5196 3.79289 23.7071C3.98043 23.8946 4.23478 24 4.5 24H15.5V26.1725C14.8328 26.4084 14.2704 26.8726 13.9124 27.483C13.5543 28.0934 13.4235 28.8107 13.5432 29.5082C13.6629 30.2057 14.0253 30.8385 14.5663 31.2946C15.1074 31.7507 15.7923 32.0009 16.5 32.0009C17.2077 32.0009 17.8926 31.7507 18.4337 31.2946C18.9747 30.8385 19.3371 30.2057 19.4568 29.5082C19.5765 28.8107 19.4457 28.0934 19.0876 27.483C18.7296 26.8726 18.1672 26.4084 17.5 26.1725V24H28.5C28.7652 24 29.0196 23.8946 29.2071 23.7071C29.3946 23.5196 29.5 23.2652 29.5 23C29.5 22.7348 29.3946 22.4804 29.2071 22.2929C29.0196 22.1054 28.7652 22 28.5 22H27.5V10C28.0304 10 28.5391 9.78929 28.9142 9.41421C29.2893 9.03914 29.5 8.53043 29.5 8ZM13.5 18C13.5 18.2652 13.3946 18.5196 13.2071 18.7071C13.0196 18.8946 12.7652 19 12.5 19C12.2348 19 11.9804 18.8946 11.7929 18.7071C11.6054 18.5196 11.5 18.2652 11.5 18V16C11.5 15.7348 11.6054 15.4804 11.7929 15.2929C11.9804 15.1054 12.2348 15 12.5 15C12.7652 15 13.0196 15.1054 13.2071 15.2929C13.3946 15.4804 13.5 15.7348 13.5 16V18ZM16.5 30C16.3022 30 16.1089 29.9414 15.9444 29.8315C15.78 29.7216 15.6518 29.5654 15.5761 29.3827C15.5004 29.2 15.4806 28.9989 15.5192 28.8049C15.5578 28.6109 15.653 28.4327 15.7929 28.2929C15.9327 28.153 16.1109 28.0578 16.3049 28.0192C16.4989 27.9806 16.7 28.0004 16.8827 28.0761C17.0654 28.1518 17.2216 28.28 17.3315 28.4444C17.4414 28.6089 17.5 28.8022 17.5 29C17.5 29.2652 17.3946 29.5196 17.2071 29.7071C17.0196 29.8946 16.7652 30 16.5 30ZM17.5 18C17.5 18.2652 17.3946 18.5196 17.2071 18.7071C17.0196 18.8946 16.7652 19 16.5 19C16.2348 19 15.9804 18.8946 15.7929 18.7071C15.6054 18.5196 15.5 18.2652 15.5 18V15C15.5 14.7348 15.6054 14.4804 15.7929 14.2929C15.9804 14.1054 16.2348 14 16.5 14C16.7652 14 17.0196 14.1054 17.2071 14.2929C17.3946 14.4804 17.5 14.7348 17.5 15V18ZM21.5 18C21.5 18.2652 21.3946 18.5196 21.2071 18.7071C21.0196 18.8946 20.7652 19 20.5 19C20.2348 19 19.9804 18.8946 19.7929 18.7071C19.6054 18.5196 19.5 18.2652 19.5 18V14C19.5 13.7348 19.6054 13.4804 19.7929 13.2929C19.9804 13.1054 20.2348 13 20.5 13C20.7652 13 21.0196 13.1054 21.2071 13.2929C21.3946 13.4804 21.5 13.7348 21.5 14V18ZM5.5 8V6H27.5V8H5.5Z" fill="#8A31EF"/>
</g>
<defs>
<clipPath id="clip0_80_205">
<rect width="32" height="32" fill="white" transform="translate(0.5)"/>
</clipPath>
</defs>
</svg>
