<svg width="33" height="32" viewBox="0 0 33 32" fill="none" xmlns="http://www.w3.org/2000/svg">
<path d="M25.5 6H17.5V2C17.5 1.73478 17.3946 1.48043 17.2071 1.29289C17.0196 1.10536 16.7652 1 16.5 1C16.2348 1 15.9804 1.10536 15.7929 1.29289C15.6054 1.48043 15.5 1.73478 15.5 2V6H7.5C6.43913 6 5.42172 6.42143 4.67157 7.17157C3.92143 7.92172 3.5 8.93913 3.5 10V24C3.5 25.0609 3.92143 26.0783 4.67157 26.8284C5.42172 27.5786 6.43913 28 7.5 28H25.5C26.5609 28 27.5783 27.5786 28.3284 26.8284C29.0786 26.0783 29.5 25.0609 29.5 24V10C29.5 8.93913 29.0786 7.92172 28.3284 7.17157C27.5783 6.42143 26.5609 6 25.5 6ZM22 12C22.2967 12 22.5867 12.088 22.8334 12.2528C23.08 12.4176 23.2723 12.6519 23.3858 12.926C23.4993 13.2001 23.5291 13.5017 23.4712 13.7926C23.4133 14.0836 23.2704 14.3509 23.0607 14.5607C22.8509 14.7704 22.5836 14.9133 22.2926 14.9712C22.0017 15.0291 21.7001 14.9994 21.426 14.8858C21.1519 14.7723 20.9176 14.58 20.7528 14.3334C20.588 14.0867 20.5 13.7967 20.5 13.5C20.5 13.1022 20.658 12.7206 20.9393 12.4393C21.2206 12.158 21.6022 12 22 12ZM12.5 23H10.5C9.96957 23 9.46086 22.7893 9.08579 22.4142C8.71071 22.0391 8.5 21.5304 8.5 21C8.5 20.4696 8.71071 19.9609 9.08579 19.5858C9.46086 19.2107 9.96957 19 10.5 19H12.5V23ZM11 15C10.7033 15 10.4133 14.912 10.1666 14.7472C9.91997 14.5824 9.72771 14.3481 9.61418 14.074C9.50065 13.7999 9.47094 13.4983 9.52882 13.2074C9.5867 12.9164 9.72956 12.6491 9.93934 12.4393C10.1491 12.2296 10.4164 12.0867 10.7074 12.0288C10.9983 11.9709 11.2999 12.0006 11.574 12.1142C11.8481 12.2277 12.0824 12.42 12.2472 12.6666C12.412 12.9133 12.5 13.2033 12.5 13.5C12.5 13.8978 12.342 14.2794 12.0607 14.5607C11.7794 14.842 11.3978 15 11 15ZM18.5 23H14.5V19H18.5V23ZM22.5 23H20.5V19H22.5C23.0304 19 23.5391 19.2107 23.9142 19.5858C24.2893 19.9609 24.5 20.4696 24.5 21C24.5 21.5304 24.2893 22.0391 23.9142 22.4142C23.5391 22.7893 23.0304 23 22.5 23Z" fill="#8A31EF"/>
</svg>
