<svg width="33" height="32" viewBox="0 0 33 32" fill="none" xmlns="http://www.w3.org/2000/svg">
<path d="M30.9138 17L18.5 4.58626C18.315 4.39973 18.0947 4.25185 17.852 4.15121C17.6093 4.05057 17.349 3.99917 17.0863 4.00001H5.50001C5.23479 4.00001 4.98044 4.10537 4.7929 4.2929C4.60537 4.48044 4.50001 4.73479 4.50001 5.00001V16.5863C4.49917 16.849 4.55057 17.1093 4.65121 17.352C4.75185 17.5947 4.89973 17.815 5.08626 18L17.5 30.4138C17.6857 30.5995 17.9062 30.7469 18.1489 30.8474C18.3916 30.948 18.6517 30.9997 18.9144 30.9997C19.1771 30.9997 19.4372 30.948 19.6799 30.8474C19.9225 30.7469 20.143 30.5995 20.3288 30.4138L30.9138 19.8288C31.0995 19.643 31.2469 19.4225 31.3474 19.1799C31.448 18.9372 31.4997 18.6771 31.4997 18.4144C31.4997 18.1517 31.448 17.8916 31.3474 17.6489C31.2469 17.4062 31.0995 17.1857 30.9138 17ZM11 12C10.7033 12 10.4133 11.912 10.1667 11.7472C9.91998 11.5824 9.72772 11.3481 9.61419 11.074C9.50066 10.7999 9.47095 10.4983 9.52883 10.2074C9.58671 9.9164 9.72957 9.64913 9.93935 9.43935C10.1491 9.22957 10.4164 9.08671 10.7074 9.02883C10.9983 8.97095 11.2999 9.00066 11.574 9.11419C11.8481 9.22772 12.0824 9.41998 12.2472 9.66666C12.412 9.91333 12.5 10.2033 12.5 10.5C12.5 10.8978 12.342 11.2794 12.0607 11.5607C11.7794 11.842 11.3978 12 11 12Z" fill="#8A31EF"/>
</svg>
