<svg width="25" height="24" viewBox="0 0 25 24" fill="none" xmlns="http://www.w3.org/2000/svg">
<g id="Sparkle">
<path id="Vector" d="M17.5302 6.53033L16.9999 6L17.5302 6.53033ZM17.5302 6.53033C17.6709 6.38968 17.7499 6.19891 17.7499 6L16.2499 6C16.2499 6.19891 16.3289 6.38968 16.4696 6.53033C16.6102 6.67098 16.801 6.75 16.9999 6.75C17.1988 6.75 17.3896 6.67098 17.5302 6.53033ZM18.4702 13.5057L13.663 15.2741L13.0126 15.5133L12.7732 16.1637L10.999 20.9831L9.21941 16.1676L8.97964 15.5187L8.33053 15.2798L3.51031 13.5056L8.33308 11.7315L8.98345 11.4923L9.22286 10.842L10.9971 6.02259L12.7712 10.8454L13.0104 11.4957L13.6607 11.7351L18.4702 13.5057Z" stroke="#8A31EF" stroke-width="3"/>
</g>
</svg>
